<mxfile host="app.diagrams.net" modified="2024-03-13T06:54:09.902Z" agent="Mozilla/5.0 (Macintosh; Intel Mac OS X 10_15_7) AppleWebKit/537.36 (KHTML, like Gecko) Chrome/122.0.0.0 Safari/537.36" etag="lK7z9RpDhwqc8V1GMZ9Q" version="24.0.2" type="github">
  <diagram name="Page-1" id="0hHDYDTnzQNr6xpG6abR">
    <mxGraphModel dx="1688" dy="912" grid="1" gridSize="10" guides="1" tooltips="1" connect="1" arrows="1" fold="1" page="1" pageScale="1" pageWidth="850" pageHeight="1100" math="0" shadow="0">
      <root>
        <mxCell id="0" />
        <mxCell id="1" parent="0" />
        <mxCell id="ihooLNB1Ic0cwBquzqxP-21" value="" style="rounded=1;whiteSpace=wrap;html=1;" vertex="1" parent="1">
          <mxGeometry x="1259" y="175" width="1020" height="135" as="geometry" />
        </mxCell>
        <mxCell id="ihooLNB1Ic0cwBquzqxP-7" value="" style="rounded=1;whiteSpace=wrap;html=1;" vertex="1" parent="1">
          <mxGeometry x="40" y="175" width="950" height="140" as="geometry" />
        </mxCell>
        <mxCell id="ihooLNB1Ic0cwBquzqxP-25" style="edgeStyle=orthogonalEdgeStyle;rounded=0;orthogonalLoop=1;jettySize=auto;html=1;" edge="1" parent="1" source="ihooLNB1Ic0cwBquzqxP-1" target="ihooLNB1Ic0cwBquzqxP-2">
          <mxGeometry relative="1" as="geometry" />
        </mxCell>
        <mxCell id="ihooLNB1Ic0cwBquzqxP-26" style="edgeStyle=orthogonalEdgeStyle;rounded=0;orthogonalLoop=1;jettySize=auto;html=1;exitX=0;exitY=0.5;exitDx=0;exitDy=0;" edge="1" parent="1" source="ihooLNB1Ic0cwBquzqxP-1" target="ihooLNB1Ic0cwBquzqxP-3">
          <mxGeometry relative="1" as="geometry" />
        </mxCell>
        <mxCell id="ihooLNB1Ic0cwBquzqxP-27" style="edgeStyle=orthogonalEdgeStyle;rounded=0;orthogonalLoop=1;jettySize=auto;html=1;exitX=0;exitY=0.5;exitDx=0;exitDy=0;" edge="1" parent="1" source="ihooLNB1Ic0cwBquzqxP-1" target="ihooLNB1Ic0cwBquzqxP-4">
          <mxGeometry relative="1" as="geometry" />
        </mxCell>
        <mxCell id="ihooLNB1Ic0cwBquzqxP-28" style="edgeStyle=orthogonalEdgeStyle;rounded=0;orthogonalLoop=1;jettySize=auto;html=1;" edge="1" parent="1" source="ihooLNB1Ic0cwBquzqxP-1" target="ihooLNB1Ic0cwBquzqxP-5">
          <mxGeometry relative="1" as="geometry" />
        </mxCell>
        <mxCell id="ihooLNB1Ic0cwBquzqxP-29" style="edgeStyle=orthogonalEdgeStyle;rounded=0;orthogonalLoop=1;jettySize=auto;html=1;entryX=0.5;entryY=0;entryDx=0;entryDy=0;" edge="1" parent="1" source="ihooLNB1Ic0cwBquzqxP-1" target="ihooLNB1Ic0cwBquzqxP-6">
          <mxGeometry relative="1" as="geometry" />
        </mxCell>
        <mxCell id="ihooLNB1Ic0cwBquzqxP-30" style="edgeStyle=orthogonalEdgeStyle;rounded=0;orthogonalLoop=1;jettySize=auto;html=1;" edge="1" parent="1" source="ihooLNB1Ic0cwBquzqxP-1" target="ihooLNB1Ic0cwBquzqxP-9">
          <mxGeometry relative="1" as="geometry" />
        </mxCell>
        <mxCell id="ihooLNB1Ic0cwBquzqxP-31" style="edgeStyle=orthogonalEdgeStyle;rounded=0;orthogonalLoop=1;jettySize=auto;html=1;" edge="1" parent="1" source="ihooLNB1Ic0cwBquzqxP-1" target="ihooLNB1Ic0cwBquzqxP-10">
          <mxGeometry relative="1" as="geometry" />
        </mxCell>
        <mxCell id="ihooLNB1Ic0cwBquzqxP-32" style="edgeStyle=orthogonalEdgeStyle;rounded=0;orthogonalLoop=1;jettySize=auto;html=1;" edge="1" parent="1" source="ihooLNB1Ic0cwBquzqxP-1" target="ihooLNB1Ic0cwBquzqxP-11">
          <mxGeometry relative="1" as="geometry" />
        </mxCell>
        <mxCell id="ihooLNB1Ic0cwBquzqxP-33" style="edgeStyle=orthogonalEdgeStyle;rounded=0;orthogonalLoop=1;jettySize=auto;html=1;" edge="1" parent="1" source="ihooLNB1Ic0cwBquzqxP-1" target="ihooLNB1Ic0cwBquzqxP-12">
          <mxGeometry relative="1" as="geometry" />
        </mxCell>
        <mxCell id="ihooLNB1Ic0cwBquzqxP-34" style="edgeStyle=orthogonalEdgeStyle;rounded=0;orthogonalLoop=1;jettySize=auto;html=1;" edge="1" parent="1" source="ihooLNB1Ic0cwBquzqxP-1" target="ihooLNB1Ic0cwBquzqxP-14">
          <mxGeometry relative="1" as="geometry" />
        </mxCell>
        <mxCell id="ihooLNB1Ic0cwBquzqxP-1" value="BrowserRouter" style="rounded=1;whiteSpace=wrap;html=1;" vertex="1" parent="1">
          <mxGeometry x="1040" y="40" width="170" height="70" as="geometry" />
        </mxCell>
        <mxCell id="ihooLNB1Ic0cwBquzqxP-2" value="BrandComponent" style="rounded=1;whiteSpace=wrap;html=1;" vertex="1" parent="1">
          <mxGeometry x="70" y="210" width="170" height="70" as="geometry" />
        </mxCell>
        <mxCell id="ihooLNB1Ic0cwBquzqxP-3" value="SearchComponent" style="rounded=1;whiteSpace=wrap;html=1;" vertex="1" parent="1">
          <mxGeometry x="310" y="210" width="170" height="70" as="geometry" />
        </mxCell>
        <mxCell id="ihooLNB1Ic0cwBquzqxP-4" value="AuthCartComponent" style="rounded=1;whiteSpace=wrap;html=1;" vertex="1" parent="1">
          <mxGeometry x="550" y="210" width="170" height="70" as="geometry" />
        </mxCell>
        <mxCell id="ihooLNB1Ic0cwBquzqxP-19" style="edgeStyle=orthogonalEdgeStyle;rounded=0;orthogonalLoop=1;jettySize=auto;html=1;exitX=0.5;exitY=1;exitDx=0;exitDy=0;entryX=0.5;entryY=0;entryDx=0;entryDy=0;" edge="1" parent="1" source="ihooLNB1Ic0cwBquzqxP-5" target="ihooLNB1Ic0cwBquzqxP-16">
          <mxGeometry relative="1" as="geometry" />
        </mxCell>
        <mxCell id="ihooLNB1Ic0cwBquzqxP-20" style="edgeStyle=orthogonalEdgeStyle;rounded=0;orthogonalLoop=1;jettySize=auto;html=1;exitX=0.5;exitY=1;exitDx=0;exitDy=0;entryX=0.5;entryY=0;entryDx=0;entryDy=0;" edge="1" parent="1" source="ihooLNB1Ic0cwBquzqxP-5" target="ihooLNB1Ic0cwBquzqxP-17">
          <mxGeometry relative="1" as="geometry" />
        </mxCell>
        <mxCell id="ihooLNB1Ic0cwBquzqxP-5" value="OffcanvasPanelComponent" style="rounded=1;whiteSpace=wrap;html=1;" vertex="1" parent="1">
          <mxGeometry x="790" y="210" width="170" height="70" as="geometry" />
        </mxCell>
        <mxCell id="ihooLNB1Ic0cwBquzqxP-6" value="NavLinksComponent" style="rounded=1;whiteSpace=wrap;html=1;" vertex="1" parent="1">
          <mxGeometry x="1040" y="210" width="170" height="70" as="geometry" />
        </mxCell>
        <mxCell id="ihooLNB1Ic0cwBquzqxP-8" value="RootLayout" style="text;html=1;align=center;verticalAlign=middle;whiteSpace=wrap;rounded=0;fontStyle=1" vertex="1" parent="1">
          <mxGeometry x="470" y="175" width="60" height="30" as="geometry" />
        </mxCell>
        <mxCell id="ihooLNB1Ic0cwBquzqxP-9" value="AllProducts Page" style="rounded=1;whiteSpace=wrap;html=1;" vertex="1" parent="1">
          <mxGeometry x="1275" y="210" width="170" height="70" as="geometry" />
        </mxCell>
        <mxCell id="ihooLNB1Ic0cwBquzqxP-10" value="WomenActivewear Page" style="rounded=1;whiteSpace=wrap;html=1;" vertex="1" parent="1">
          <mxGeometry x="1490" y="210" width="170" height="70" as="geometry" />
        </mxCell>
        <mxCell id="ihooLNB1Ic0cwBquzqxP-11" value="MenActivewear Page" style="rounded=1;whiteSpace=wrap;html=1;" vertex="1" parent="1">
          <mxGeometry x="1690" y="210" width="170" height="70" as="geometry" />
        </mxCell>
        <mxCell id="ihooLNB1Ic0cwBquzqxP-12" value="Supplements Page" style="rounded=1;whiteSpace=wrap;html=1;" vertex="1" parent="1">
          <mxGeometry x="1890" y="210" width="170" height="70" as="geometry" />
        </mxCell>
        <mxCell id="ihooLNB1Ic0cwBquzqxP-24" style="edgeStyle=orthogonalEdgeStyle;rounded=0;orthogonalLoop=1;jettySize=auto;html=1;entryX=0.5;entryY=0;entryDx=0;entryDy=0;" edge="1" parent="1" source="ihooLNB1Ic0cwBquzqxP-14" target="ihooLNB1Ic0cwBquzqxP-23">
          <mxGeometry relative="1" as="geometry" />
        </mxCell>
        <mxCell id="ihooLNB1Ic0cwBquzqxP-14" value="Login Page" style="rounded=1;whiteSpace=wrap;html=1;" vertex="1" parent="1">
          <mxGeometry x="2090" y="210" width="170" height="70" as="geometry" />
        </mxCell>
        <mxCell id="ihooLNB1Ic0cwBquzqxP-15" value="ImageLinkComponent" style="rounded=1;whiteSpace=wrap;html=1;" vertex="1" parent="1">
          <mxGeometry x="580" y="380" width="170" height="70" as="geometry" />
        </mxCell>
        <mxCell id="ihooLNB1Ic0cwBquzqxP-16" value="SignInButtonComponent" style="rounded=1;whiteSpace=wrap;html=1;" vertex="1" parent="1">
          <mxGeometry x="790" y="380" width="170" height="70" as="geometry" />
        </mxCell>
        <mxCell id="ihooLNB1Ic0cwBquzqxP-17" value="BrandComponent" style="rounded=1;whiteSpace=wrap;html=1;" vertex="1" parent="1">
          <mxGeometry x="990" y="380" width="170" height="70" as="geometry" />
        </mxCell>
        <mxCell id="ihooLNB1Ic0cwBquzqxP-18" style="edgeStyle=orthogonalEdgeStyle;rounded=0;orthogonalLoop=1;jettySize=auto;html=1;exitX=0.5;exitY=1;exitDx=0;exitDy=0;" edge="1" parent="1" source="ihooLNB1Ic0cwBquzqxP-5" target="ihooLNB1Ic0cwBquzqxP-15">
          <mxGeometry relative="1" as="geometry" />
        </mxCell>
        <mxCell id="ihooLNB1Ic0cwBquzqxP-22" value="&lt;b&gt;Pages&lt;/b&gt;" style="text;html=1;align=center;verticalAlign=middle;whiteSpace=wrap;rounded=0;" vertex="1" parent="1">
          <mxGeometry x="1710" y="180" width="60" height="30" as="geometry" />
        </mxCell>
        <mxCell id="ihooLNB1Ic0cwBquzqxP-23" value="BrandComponent" style="rounded=1;whiteSpace=wrap;html=1;" vertex="1" parent="1">
          <mxGeometry x="2090" y="360" width="170" height="70" as="geometry" />
        </mxCell>
      </root>
    </mxGraphModel>
  </diagram>
</mxfile>
